<?xml version="1.0" encoding="iso-8859-1"?>
<!-- Generator: Adobe Illustrator 19.0.0, SVG Export Plug-In . SVG Version: 6.00 Build 0)  -->
<svg version="1.1" id="Layer_1" xmlns="http://www.w3.org/2000/svg" xmlns:xlink="http://www.w3.org/1999/xlink" x="0px" y="0px"
	 viewBox="0 0 511.177 511.177" style="enable-background:new 0 0 511.177 511.177;" xml:space="preserve">
<path style="fill:#01C26E;" d="M511.089,431.177c0,44.183-35.817,80-80,80h-351c-44.183,0-80-35.817-80-80v-327l104-104h327
	c44.183,0,80,35.818,80,80V431.177z"/>
<polygon style="opacity:0.2;fill:#5D5D5D;enable-background:new    ;" points="0.089,159.911 0.089,104.177 55.556,104.177 "/>
<polygon style="fill:#BF4135;" points="225.919,223.028 255.589,141.513 204.146,0.177 144.807,0.177 "/>
<polygon style="fill:#243140;" points="196.18,303.856 225.786,223.166 145.249,0.104 104.53,0 90.846,13.614 "/>
<polygon style="fill:#E24C3F;" points="307.03,0.177 255.589,141.513 225.919,223.028 255.589,304.542 285.258,223.028 
	366.37,0.177 "/>
<rect x="255.589" y="325.294" style="fill:#2D3E50;" width="0.001" height="0.002"/>
<polygon style="fill:#2D3E50;" points="285.258,223.028 314.655,303.796 425.706,0.177 366.37,0.177 "/>
<circle style="fill:#F3C40F;" cx="248.618" cy="334.489" r="119.186"/>
<path style="fill:#E6B90E;" d="M248.919,235.084c-54.9,0-99.404,44.504-99.404,99.405c0,54.902,44.504,99.406,99.404,99.406
	s99.408-44.504,99.408-99.406C348.327,279.588,303.819,235.084,248.919,235.084z M248.919,419.956
	c-47.201,0-85.465-38.265-85.465-85.467s38.264-85.467,85.465-85.467s85.467,38.265,85.467,85.467S296.12,419.956,248.919,419.956z"
	/>
<path style="fill:#FFD533;" d="M248.919,249.022c-47.201,0-85.465,38.265-85.465,85.467s38.264,85.467,85.465,85.467
	s85.467-38.265,85.467-85.467S296.12,249.022,248.919,249.022z M248.618,413.624c-43.703,0-79.133-35.429-79.133-79.134
	s35.43-79.134,79.133-79.134s79.135,35.429,79.135,79.134S292.32,413.624,248.618,413.624z"/>
<path style="fill:#E6B90E;" d="M248.919,235.084c-54.9,0-99.404,44.504-99.404,99.405c0,54.902,44.504,99.406,99.404,99.406
	s99.408-44.504,99.408-99.406C348.327,279.588,303.819,235.084,248.919,235.084z M248.919,419.956
	c-47.201,0-85.465-38.265-85.465-85.467s38.264-85.467,85.465-85.467s85.467,38.265,85.467,85.467S296.12,419.956,248.919,419.956z"
	/>
<path style="opacity:0.2;fill:#5D5D5D;enable-background:new    ;" d="M255.031,453.501c16.873-0.896,32.813-5.303,47.107-12.499
	L271.21,280.694l-44.896,26.613L255.031,453.501z"/>
<path style="fill:#E6B90E;" d="M239.307,314.593h-13.283v-26.929h45.188v87.947h-31.904v-61.018H239.307z"/>
<path style="fill:#FFD533;" d="M239.307,307.624h-13.283v-26.93h45.188v87.947h-31.904v-61.017H239.307z"/>
<path style="fill:#01FF91;" d="M0.089,104.177h69.334c19.066,0,34.666-15.334,34.666-34.4v-69.6L0.089,104.177z"/>
<g>
</g>
<g>
</g>
<g>
</g>
<g>
</g>
<g>
</g>
<g>
</g>
<g>
</g>
<g>
</g>
<g>
</g>
<g>
</g>
<g>
</g>
<g>
</g>
<g>
</g>
<g>
</g>
<g>
</g>
</svg>
